<svg xmlns="http://www.w3.org/2000/svg" xmlns:xlink="http://www.w3.org/1999/xlink" viewBox="0 0 163.81 209.69"><defs><style>.cls-1{fill:url(#linear-gradient);}.cls-2{fill:url(#linear-gradient-2);}.cls-3{fill:url(#linear-gradient-3);}.cls-4{fill:#fff;}</style><linearGradient id="linear-gradient" x1="-2.06" y1="54.52" x2="127.51" y2="184.09" gradientUnits="userSpaceOnUse"><stop offset="0" stop-color="#fed900"/><stop offset="0.26" stop-color="#fbd600"/><stop offset="0.48" stop-color="#f0cc00"/><stop offset="0.69" stop-color="#dfbb00"/><stop offset="0.88" stop-color="#c6a300"/><stop offset="0.99" stop-color="#b59200"/></linearGradient><linearGradient id="linear-gradient-2" x1="39.08" y1="25.23" x2="138.24" y2="196.98" gradientUnits="userSpaceOnUse"><stop offset="0" stop-color="#006de1"/><stop offset="0.23" stop-color="#006bdd"/><stop offset="0.47" stop-color="#0066d0"/><stop offset="0.72" stop-color="#005ebb"/><stop offset="0.97" stop-color="#00529e"/><stop offset="0.99" stop-color="#00519b"/></linearGradient><linearGradient id="linear-gradient-3" x1="71.58" y1="41.55" x2="176.36" y2="223.04" gradientUnits="userSpaceOnUse"><stop offset="0" stop-color="#4f20d2"/><stop offset="0.03" stop-color="#4e1fd0"/><stop offset="0.41" stop-color="#3d19b3"/><stop offset="0.75" stop-color="#3414a1"/><stop offset="0.99" stop-color="#30139b"/></linearGradient></defs><g id="Layer_2" data-name="Layer 2"><g id="Layer_1-2" data-name="Layer 1"><path class="cls-1" d="M67.48,45l72.88,126.21-6.4,3.69-.89,0a6.18,6.18,0,0,1-5.17-3l-3.12-5.21a6.14,6.14,0,0,0-9.13-1.63l-4.69,3.8a6.11,6.11,0,0,1-5.86,1l-5.71-2a6.11,6.11,0,0,0-8,4.63l-1.14,6a6.13,6.13,0,0,1-3.82,4.57l-5.63,2.15a6.14,6.14,0,0,0-3.15,8.73l2.94,5.3a6.2,6.2,0,0,1,0,6l-.43.78-6.4,3.69L.89,83.47A6.16,6.16,0,0,1,.82,77.4l2.92-5.29A5.61,5.61,0,0,0,4.23,71a6.17,6.17,0,0,0-.51-4.82L.78,60.83A6.14,6.14,0,0,1,3.93,52.1L9.56,50a6.11,6.11,0,0,0,3.82-4.57l1.14-5.94a6.1,6.1,0,0,1,8-4.63l5.72,2a6.11,6.11,0,0,0,5.86-1L38.8,32a6.13,6.13,0,0,1,9.13,1.64l3.12,5.2A6.18,6.18,0,0,0,55,41.65a5.78,5.78,0,0,0,1.25.16l6,.12A6.13,6.13,0,0,1,67.48,45Z"/><path class="cls-2" d="M114.45,34.78l40.83,152.37-7.72,2.07-.93-.27a6.69,6.69,0,0,1-4.56-4.58l-1.81-6.32a6.65,6.65,0,0,0-9.09-4.27l-6,2.67a6.63,6.63,0,0,1-6.42-.58l-5.41-3.68a6.61,6.61,0,0,0-9.68,2.6l-2.86,5.89a6.62,6.62,0,0,1-5.27,3.71l-6.49.67a6.65,6.65,0,0,0-5.74,8.24l1.59,6.38a6.66,6.66,0,0,1-1.66,6.24l-.66.7-7.72,2.07L34.06,56.32A6.67,6.67,0,0,1,35.69,50l4.53-4.71a6.26,6.26,0,0,0,.84-1.08A6.72,6.72,0,0,0,41.88,39l-1.59-6.37A6.64,6.64,0,0,1,46,24.38l6.49-.68A6.6,6.6,0,0,0,57.79,20l2.85-5.89a6.61,6.61,0,0,1,9.68-2.6l5.42,3.68a6.59,6.59,0,0,0,6.41.57l6-2.66a6.66,6.66,0,0,1,9.1,4.27L99,23.68a6.69,6.69,0,0,0,3.3,4.07,6.16,6.16,0,0,0,1.27.52l6.27,1.81A6.68,6.68,0,0,1,114.45,34.78Z"/><path class="cls-3" d="M163.81,39.14V209.69h-8.64l-.89-.54a7.24,7.24,0,0,1-3.49-6.06l-.11-7.1a7.2,7.2,0,0,0-8.3-7l-7,1.12a7.19,7.19,0,0,1-6.54-2.4l-4.62-5.35a7.14,7.14,0,0,0-10.84,0l-4.63,5.35a7.18,7.18,0,0,1-6.54,2.4l-7-1.12a7.2,7.2,0,0,0-8.3,7l-.12,7.1a7.25,7.25,0,0,1-3.48,6.06l-.89.54H73.83V39.14a7.2,7.2,0,0,1,3.48-6.2l6-3.65a7.45,7.45,0,0,0,1.18-.89,7.27,7.27,0,0,0,2.3-5.18L87,16.13a7.18,7.18,0,0,1,8.3-7l7,1.1a7.12,7.12,0,0,0,6.54-2.39l4.63-5.35a7.13,7.13,0,0,1,10.83,0l4.63,5.35a7.13,7.13,0,0,0,6.54,2.39l7-1.1a7.18,7.18,0,0,1,8.3,7l.12,7.09a7.24,7.24,0,0,0,2.31,5.18,7,7,0,0,0,1.18.89l6,3.65A7.21,7.21,0,0,1,163.81,39.14Z"/><path class="cls-4" d="M140,104.05l9.52-34.54L125.07,95.12,106.9,80l-16.59,60.2,24.45-25.61,18.17,15.14,4.15-15.06-4.73,5.9L121,111.36l11-13.75Zm-27,1-5.71-4.63,4.6-5.73,5.71,4.62Z"/></g></g></svg>